<?xml version="1.0" encoding="UTF-8"?>
<svg xmlns="http://www.w3.org/2000/svg" xmlns:xlink="http://www.w3.org/1999/xlink" width="32px" height="32px" viewBox="0 0 32 32" version="1.1">
<defs>
<filter id="alpha" filterUnits="objectBoundingBox" x="0%" y="0%" width="100%" height="100%">
  <feColorMatrix type="matrix" in="SourceGraphic" values="0 0 0 0 1 0 0 0 0 1 0 0 0 0 1 0 0 0 1 0"/>
</filter>
<mask id="mask0">
  <g filter="url(#alpha)">
<rect x="0" y="0" width="32" height="32" style="fill:rgb(0%,0%,0%);fill-opacity:0.2;stroke:none;"/>
  </g>
</mask>
<clipPath id="clip1">
  <rect x="0" y="0" width="32" height="32"/>
</clipPath>
<g id="surface5" clip-path="url(#clip1)">
<path style=" stroke:none;fill-rule:nonzero;fill:rgb(0%,0%,0%);fill-opacity:1;" d="M 30 12 L 2 12 C 1.632812 12 1.332031 12.296875 1.332031 12.667969 L 1.332031 20.136719 C 3.121094 20.472656 8.410156 21.335938 16 21.335938 C 23.585938 21.335938 28.878906 20.472656 30.664062 20.136719 L 30.664062 12.667969 C 30.664062 12.296875 30.367188 12 30 12 Z M 30 12 "/>
</g>
<mask id="mask1">
  <g filter="url(#alpha)">
<rect x="0" y="0" width="32" height="32" style="fill:rgb(0%,0%,0%);fill-opacity:0.2;stroke:none;"/>
  </g>
</mask>
<clipPath id="clip2">
  <rect x="0" y="0" width="32" height="32"/>
</clipPath>
<g id="surface8" clip-path="url(#clip2)">
<path style=" stroke:none;fill-rule:nonzero;fill:rgb(100%,100%,100%);fill-opacity:1;" d="M 31.335938 6.667969 L 0.667969 6.667969 C 0.296875 6.667969 0 6.964844 0 7.332031 L 0 8.667969 C 0 8.296875 0.296875 8 0.667969 8 L 31.335938 8 C 31.703125 8 32 8.296875 32 8.667969 L 32 7.332031 C 32 6.964844 31.703125 6.667969 31.335938 6.667969 Z M 31.335938 6.667969 "/>
</g>
<mask id="mask2">
  <g filter="url(#alpha)">
<rect x="0" y="0" width="32" height="32" style="fill:rgb(0%,0%,0%);fill-opacity:0.2;stroke:none;"/>
  </g>
</mask>
<clipPath id="clip3">
  <rect x="0" y="0" width="32" height="32"/>
</clipPath>
<g id="surface11" clip-path="url(#clip3)">
<path style=" stroke:none;fill-rule:nonzero;fill:rgb(0%,0%,0%);fill-opacity:1;" d="M 12.667969 1.332031 L 14 1.332031 L 14 4 L 12.667969 4 Z M 12.667969 1.332031 "/>
</g>
<mask id="mask3">
  <g filter="url(#alpha)">
<rect x="0" y="0" width="32" height="32" style="fill:rgb(0%,0%,0%);fill-opacity:0.2;stroke:none;"/>
  </g>
</mask>
<clipPath id="clip4">
  <rect x="0" y="0" width="32" height="32"/>
</clipPath>
<g id="surface14" clip-path="url(#clip4)">
<path style=" stroke:none;fill-rule:nonzero;fill:rgb(0%,0%,0%);fill-opacity:1;" d="M 15.332031 1.332031 L 16.667969 1.332031 L 16.667969 4 L 15.332031 4 Z M 15.332031 1.332031 "/>
</g>
<mask id="mask4">
  <g filter="url(#alpha)">
<rect x="0" y="0" width="32" height="32" style="fill:rgb(0%,0%,0%);fill-opacity:0.2;stroke:none;"/>
  </g>
</mask>
<clipPath id="clip5">
  <rect x="0" y="0" width="32" height="32"/>
</clipPath>
<g id="surface17" clip-path="url(#clip5)">
<path style=" stroke:none;fill-rule:nonzero;fill:rgb(0%,0%,0%);fill-opacity:1;" d="M 18 1.332031 L 19.335938 1.332031 L 19.335938 4 L 18 4 Z M 18 1.332031 "/>
</g>
</defs>
<g id="surface1">
<path style=" stroke:none;fill-rule:nonzero;fill:rgb(25.882354%,28.627452%,32.549021%);fill-opacity:1;" d="M 10 1.332031 C 9.265625 1.332031 8.667969 1.933594 8.667969 2.667969 L 8.667969 9.492188 C 8.667969 10.226562 9.265625 10.828125 10 10.828125 C 10.734375 10.828125 11.332031 10.226562 11.332031 9.492188 L 11.332031 5.332031 C 11.332031 4.601562 11.933594 4 12.667969 4 L 19.332031 4 C 20.066406 4 20.667969 4.601562 20.667969 5.332031 L 20.667969 9.492188 C 20.667969 10.226562 21.265625 10.828125 22 10.828125 C 22.734375 10.828125 23.335938 10.226562 23.335938 9.492188 L 23.335938 2.667969 C 23.335938 1.933594 22.734375 1.332031 22 1.332031 C 22 1.332031 10 1.332031 10 1.332031 Z M 10 1.332031 "/>
<path style=" stroke:none;fill-rule:nonzero;fill:rgb(25.882354%,28.627452%,32.549021%);fill-opacity:1;" d="M 10 1.332031 C 9.265625 1.332031 8.667969 1.933594 8.667969 2.667969 L 8.667969 9.492188 C 8.667969 10.226562 9.265625 10.828125 10 10.828125 C 10.734375 10.828125 11.332031 10.226562 11.332031 9.492188 L 11.332031 5.332031 C 11.332031 4.601562 11.933594 4 12.667969 4 L 19.332031 4 C 20.066406 4 20.667969 4.601562 20.667969 5.332031 L 20.667969 9.492188 C 20.667969 10.226562 21.265625 10.828125 22 10.828125 C 22.734375 10.828125 23.335938 10.226562 23.335938 9.492188 L 23.335938 2.667969 C 23.335938 1.933594 22.734375 1.332031 22 1.332031 C 22 1.332031 10 1.332031 10 1.332031 Z M 10 1.332031 "/>
<path style=" stroke:none;fill-rule:nonzero;fill:rgb(25.882354%,28.627452%,32.549021%);fill-opacity:1;" d="M 30.664062 30 C 30.664062 30.367188 30.367188 30.667969 30 30.667969 L 2 30.667969 C 1.632812 30.667969 1.332031 30.367188 1.332031 30 L 1.332031 12.667969 C 1.332031 12.296875 1.632812 12 2 12 L 30 12 C 30.367188 12 30.664062 12.296875 30.664062 12.667969 Z M 30.664062 30 "/>
<use xlink:href="#surface5" mask="url(#mask0)"/>
<path style=" stroke:none;fill-rule:nonzero;fill:rgb(39.215687%,42.352942%,46.666667%);fill-opacity:1;" d="M 32 18 C 32 18.367188 31.703125 18.667969 31.335938 18.667969 C 31.335938 18.667969 25.445312 20 16 20 C 6.554688 20 0.667969 18.667969 0.667969 18.667969 C 0.296875 18.667969 0 18.367188 0 18 L 0 7.332031 C 0 6.964844 0.296875 6.667969 0.667969 6.667969 L 31.335938 6.667969 C 31.703125 6.667969 32 6.964844 32 7.332031 Z M 32 18 "/>
<use xlink:href="#surface8" mask="url(#mask1)"/>
<path style=" stroke:none;fill-rule:nonzero;fill:rgb(99.607843%,80.392158%,34.117648%);fill-opacity:1;" d="M 14 16.667969 L 18 16.667969 L 18 22 L 14 22 Z M 14 16.667969 "/>
<path style=" stroke:none;fill-rule:nonzero;fill:rgb(96.078432%,72.941178%,27.058825%);fill-opacity:1;" d="M 18 16 L 14 16 C 13.632812 16 13.332031 16.296875 13.332031 16.667969 L 13.332031 22 C 13.332031 22.367188 13.632812 22.667969 14 22.667969 L 18 22.667969 C 18.367188 22.667969 18.667969 22.367188 18.667969 22 L 18.667969 16.667969 C 18.667969 16.296875 18.367188 16 18 16 Z M 17.335938 21.335938 L 14.667969 21.335938 L 14.667969 17.335938 L 17.335938 17.335938 Z M 17.335938 21.335938 "/>
<path style=" stroke:none;fill-rule:nonzero;fill:rgb(96.078432%,72.941178%,27.058825%);fill-opacity:1;" d="M 16 18 C 15.632812 18 15.332031 18.300781 15.332031 18.667969 L 15.332031 20 C 15.332031 20.367188 15.632812 20.667969 16 20.667969 C 16.367188 20.667969 16.667969 20.367188 16.667969 20 L 16.667969 18.667969 C 16.667969 18.300781 16.367188 18 16 18 Z M 16 18 "/>
<use xlink:href="#surface11" mask="url(#mask2)"/>
<use xlink:href="#surface14" mask="url(#mask3)"/>
<use xlink:href="#surface17" mask="url(#mask4)"/>
</g>
</svg>
